# xmcd
#
# Track frame offsets:
#	150
#	23030
#	53166
#	80566
#	101663
#	134478
#	169991
#
# Disc length: 2751 seconds
#
# Revision: 1
# Processed by: cddbd v1.5.2PL0 Copyright (c) Steve Scherf et al.
# Submitted via: audiograbber 1.83.01
#
DISCID=590abd07
DTITLE=Various Artist - Jazz At Berlin Philharmonic VII - Piano Night
DYEAR=2017
DGENRE=Jazz
TTITLE0=Iiro Rantala - Candide Overture [live]
TTITLE1=Iiro Rantala - Freedom [live]
TTITLE2=Michael Wollny and Iiro Rantala - White Moon [live]
TTITLE3=Leszek Mozdzer - She Said She Was A Painter [live]
TTITLE4=Leszek Mozdzer and Iiro Rantala - Africa [live]
TTITLE5=Leszek Mozdzer and Iiro Rantala and Michael Wollny - Summertime [live]
TTITLE6=Leszek Mozdzer and Iiro Rantala and Michael Wollny - Fiesta [live]
EXTD=
EXTT0=
EXTT1=
EXTT2=
EXTT3=
EXTT4=
EXTT5=
EXTT6=
PLAYORDER=
